PathFileType	4	(X/Y/Z)	39_2_61_p0_0-332.trc
DataRate	CameraRate	NumFrames	NumMarkers	Units	OrigDataRate	OrigDataStartFrame	OrigNumFrames
47.0	47.0	6	27	m	47.0	291	333
Frame#	Time	RHip			RKnee			RAnkle			RBigToe			RSmallToe			RHeel			LHip			LKnee			LAnkle			LBigToe			LSmallToe			LHeel			Neck			Head			Nose			RShoulder			RElbow			RWrist			RThumb			RIndex			RPinky			LShoulder			LElbow			LWrist			LThumb			LIndex			LPinky			
		X1	Y1	Z1	X2	Y2	Z2	X3	Y3	Z3	X4	Y4	Z4	X5	Y5	Z5	X6	Y6	Z6	X7	Y7	Z7	X8	Y8	Z8	X9	Y9	Z9	X10	Y10	Z10	X11	Y11	Z11	X12	Y12	Z12	X13	Y13	Z13	X14	Y14	Z14	X15	Y15	Z15	X16	Y16	Z16	X17	Y17	Z17	X18	Y18	Z18	X19	Y19	Z19	X20	Y20	Z20	X21	Y21	Z21	X22	Y22	Z22	X23	Y23	Z23	X24	Y24	Z24	X25	Y25	Z25	X26	Y26	Z26	X27	Y27	Z27	
291	6.191489361702128	0.30563928111053007	0.7549381175681065	0.5732115105890062	0.2562067375532458	0.7675509314479826	0.945666638155749	0.23628940569356646	0.8438246974852484	1.3252830249081058	0.22162558245116443	0.66321485542385	1.3507493316480632	0.2768222512694681	0.6855654251329794	1.36150666838081	0.208705167476252	0.9361911894144879	1.3856953609576539	0.10416620882186839	0.6607781806011139	0.5486635267564629	0.09687638374717653	0.742401948997486	0.9395155162513167	0.04095837162045676	0.8219959051846436	1.3410726538664801	0.06437158374806763	0.6110419135037654	1.318613359506092	0.019273291576949375	0.6521362578369767	1.3250080339886698	0.04844073362485346	0.8704345400296287	1.3784473814964089	0.26221978228192294	0.5429014657063159	0.022921074286311852	0.30191871853117075	0.4087864766514433	-0.21686169852916062	0.33201970346156445	0.365576434460372	-0.06484023394237187	0.40271692766909656	0.6150559687192577	0.07972909380321085	0.5388571942661476	0.6130810228289286	0.2933429777873003	0.554042952962151	0.4468350614942799	0.17010377033735632	0.5203133429980048	0.32909072439849707	0.08016283413033128	0.5419489104689311	0.32720789783742316	0.07882270317185254	0.5878532699078775	0.43961410814186214	0.11066505572329327	0.10034263980189319	0.48092916779062217	0.08447822462465025	0.08591729199808477	0.42017614665155933	0.32676516021617136	0.2467723458553476	0.32654862084009545	0.2468038718831021	0.3273015858131662	0.3024531649580604	0.23412761977739108	0.3505163249867536	0.2573795915072034	0.23823146447662333	0.3355698512921163	0.28533372324362827	0.24803381549339393
292	6.212765957446808	0.3052731720936805	0.7536405765425951	0.568927076652818	0.26039180268667295	0.7701045292384925	0.9465623582265379	0.23622691720646852	0.8439685388002374	1.3253082325238081	0.221592069926182	0.663246607786557	1.3507417495129792	0.27210796119540626	0.6846835428464385	1.3611088082116074	0.2087034842144906	0.9365015349885893	1.3858851468296742	0.10430439486167048	0.660296577164721	0.552214212992166	0.09694121594582449	0.7423135687626757	0.9393776122334031	0.040956251433044384	0.8221285765702891	1.341070016301039	0.06427087391003172	0.6111441186744042	1.3185623901017214	0.013202310191773776	0.6669219344640244	1.3319810941559873	0.04825365479446895	0.8708470663480536	1.3787816288661647	0.2622377963812632	0.543110142473744	0.019318289609446464	0.30884681496784977	0.4214753569762091	-0.22118582590432695	0.3458522187886435	0.37691478843666365	-0.06531393455758738	0.4023544696422415	0.6156688090239616	0.08272533921475136	0.5314278228956874	0.6442339082083294	0.2931779143936792	0.581653284191058	0.49371477362778626	0.1745635917050173	0.5469129998617203	0.3752931660195339	0.07596100084817707	0.5698384546748609	0.37741696966074	0.08330133905802388	0.583747018026042	0.39461480124192655	0.09953706570656981	0.10299858184547231	0.4922615385640076	0.08204345140597831	0.09025136974359335	0.4435511250850179	0.3336078162932512	0.25253919205888	0.34846328065490584	0.24564310425531416	0.3376374369928002	0.308363030197698	0.23529099969652373	0.3629600850274745	0.2625176539731905	0.23704573148541097	0.3382118743875136	0.29374583655460174	0.25515671483868685
293	6.23404255319149	0.3055914726317875	0.7552648056536181	0.573287795702406	0.2605043194751057	0.7702965004305289	0.9466238267914332	0.23621211570051512	0.8437512416466114	1.3252651035737881	0.22160337492408366	0.663306587604203	1.3507238685813203	0.27218581172948936	0.6845673225950907	1.361031999536095	0.20726255543459013	0.9374496411734191	1.390920950495562	0.1044288156010505	0.6599635875959606	0.5521470670014116	0.09702867400095128	0.742184163601009	0.9394295120375391	0.04247807244174709	0.8208863989906556	1.3360029106477604	0.06560670028407253	0.609982297871284	1.314231705065151	0.019306555193669014	0.6521319058221087	1.3249513245468043	0.04843575800007883	0.8706550250783375	1.378568592241297	0.2628333073138657	0.5427050525205329	0.016195495863871756	0.3153236802943521	0.4336347933608896	-0.2180668595115834	0.34632751225802183	0.3767549066886023	-0.068206411445914	0.40243789850618167	0.6148982602487227	0.08269407445879859	0.5359718373241106	0.6447937852698217	0.29724139656750986	0.5887552798676505	0.4915217096613687	0.17441207184404553	0.569645865147935	0.3754545754640112	0.07922452257132558	0.5814856052802796	0.3740495231822573	0.08262290898102823	0.5937880138300029	0.399727664840651	0.10333598079846582	0.10965025436599893	0.4706583589573875	0.08057920100777176	0.09034744120327885	0.4416851308825997	0.33020817277502496	0.2635794709106986	0.3489197294619498	0.24931181007162384	0.34242737769821185	0.31138716641678177	0.23620856697795142	0.36749119187384965	0.2529562104077915	0.23618728007440157	0.3490363880899051	0.29338470145531503	0.2616153067636344
294	6.25531914893617	0.30530333256849623	0.7534352656935597	0.5689646933359992	0.26057464711654343	0.7700794593419252	0.9467989727066604	0.23613393032328286	0.8440061435139828	1.32550331837132	0.22156448280984364	0.6632167502092111	1.350897347572235	0.271928556651086	0.6846425379143729	1.3612501197666749	0.20141126281671964	0.9553130967724363	1.3990311352327331	0.11434682844371698	0.6473402231596302	0.5495681498199322	0.09721596207041804	0.7422276444848108	0.9395051146077774	0.042469724034757635	0.8209101488611901	1.336052402336674	0.06017272747779927	0.6246119988578875	1.3212478815828674	0.013159463765252077	0.6669163367696923	1.3320008758824753	0.04831852762911803	0.8707350762347517	1.3786698864695477	0.2670491977228621	0.5432489440977378	0.016085231072699095	0.3230714419019291	0.4236691652449143	-0.2174057419305804	0.3502192348565674	0.3775607400536846	-0.06523663234752536	0.4062601667132733	0.6265273835931023	0.0764527055889433	0.5248423998462345	0.6895655969917068	0.3027903850304209	0.5898604776080904	0.5073237374579799	0.18286537068211883	0.5744964034810616	0.37805090919648027	0.08707623762094932	0.600479651823235	0.3957553170360495	0.08878366326314699	0.6347437295653932	0.38618651506249396	0.12103630781990357	0.11204591514936225	0.4822104180714317	0.08120496881860738	0.09059173691315318	0.4412657106524513	0.3339405263778902	0.2608679424100654	0.3381939038819106	0.2483757822552006	0.34120963602782123	0.3082452298394954	0.2364564989122908	0.3668173243539438	0.2505151838787521	0.23621888751755257	0.3526270589523672	0.26508373901333593	0.25429097632334385
295	6.276595744680851	0.3047213029906037	0.754187951099982	0.5728767885778839	0.2641727176967444	0.7831306910463599	0.9553132948023572	0.2361053436606661	0.8439780566785299	1.3255569032460894	0.22159416495064424	0.6633112080372298	1.3509000115044776	0.271988671166556	0.6849608592099696	1.3613153817626789	0.20743397397757016	0.9358847358656631	1.3951498899404409	0.11426850343044356	0.6454158609547243	0.5448312135081927	0.09736343520184242	0.7417617918394026	0.9397691553132788	0.04245988959411095	0.8210721023291623	1.3361324292979981	0.0601360937535318	0.6247443639360698	1.321317050503806	0.017760947043306614	0.6684384184667107	1.3325826392653894	0.04832893389247972	0.8712105284787264	1.3788925489006658	0.27184105778137485	0.5306838284651544	0.015563782268610899	0.31941498826962467	0.4355754834637775	-0.22467116660209566	0.3546964547604524	0.3661933576363126	-0.07106166958403322	0.40978716184787783	0.638835513866867	0.07726262124962724	0.524735857456727	0.6900496380519516	0.302879512301732	0.592963213767402	0.49358432876783753	0.18638151898979924	0.5891480719806168	0.3656556680705452	0.10096117160198555	0.6160653561424199	0.36652186121858504	0.10931385522695658	0.6192926095267192	0.36339233111509694	0.14992747424193292	0.11580054941597864	0.4843657166438983	0.0809715617888922	0.09755704432207958	0.4400514537080485	0.33404424359677626	0.2636624510086872	0.3479980383569671	0.25003170778067424	0.34234064706442474	0.2847644174958816	0.23394250156831964	0.36647218616501676	0.2473641215744847	0.23266125089996428	0.35507243173243913	0.2735686867886771	0.25562268990129644
296	6.297872340425532	0.30535805768399427	0.7542249211753329	0.5692189865996399	0.26068724236499796	0.769865451739501	0.9467374956081942	0.23616868454374493	0.8437909898610678	1.3253079881209646	0.22628787749087492	0.6659139535210149	1.3520096874685705	0.2768802108896937	0.6861231274131896	1.3616408144041494	0.20710275355749116	0.9374700890256411	1.3907899886122637	0.11419555879835319	0.6456770924621615	0.544870995089965	0.09752734566341197	0.7422255043643741	0.9394485072866011	0.04259219567024285	0.8212301392401682	1.3360334398557232	0.06584820997737932	0.6098174866627236	1.3142260381057425	0.023938806681613245	0.653704120639183	1.325585944732542	0.04859251595922731	0.8719400287629361	1.3790545345930487	0.27204652462112616	0.5308022514396308	0.015443706667306477	0.3194139270250505	0.4346279398961358	-0.22821559406177538	0.35508481493192406	0.366238708856354	-0.07408374432368826	0.417199450776053	0.6514290332818573	0.0743719006720991	0.5249945966731904	0.7183854772018099	0.30618203283578993	0.5897600250857826	0.5077887461011688	0.20168583341980628	0.5824800228865535	0.3657274118424252	0.11119204738701478	0.5960705484100712	0.3397717549527292	0.11533172470122875	0.6001454516219736	0.33288647588807935	0.1542994990131625	0.11551910531501794	0.4849726132519987	0.0844410805563086	0.0978003502730195	0.4402880124175018	0.33417226807278233	0.2746016777577895	0.3484638015060365	0.25031858309137806	0.35178962648901946	0.2642476102830051	0.23022840985721574	0.37135461977603723	0.2409349228825022	0.23331966817467162	0.3773378513795283	0.3123899217677534	0.2617810808167198
